<?xml version="1.0" encoding="iso-8859-1"?>
<!-- Uploaded to: SVG Repo, www.svgrepo.com, Generator: SVG Repo Mixer Tools -->
<svg height="800px" width="800px" version="1.1" id="Layer_1" xmlns="http://www.w3.org/2000/svg" xmlns:xlink="http://www.w3.org/1999/xlink" 
	 viewBox="0 0 512 512" xml:space="preserve">
<path style="fill:#B07E09;" d="M290.779,503.413h-49.448c-10.545,0-19.094-2.091-19.094-16.599V31.804
	c0-12.822,10.395-23.217,23.217-23.217h17.783h23.416c12.822,0,23.217,10.395,23.217,23.217v455.009
	C309.874,501.321,301.326,503.413,290.779,503.413z"/>
<g>
	<path style="fill:#855914;" d="M290.779,453.035h-49.448c-10.545,0-19.094-2.091-19.094-16.599v50.378
		c0,14.508,8.549,16.599,19.094,16.599h49.448c10.545,0,19.094-2.091,19.094-16.599v-50.378
		C309.874,450.944,301.324,453.035,290.779,453.035z"/>
	<path style="fill:#855914;" d="M222.238,90.524v86.967c12.455,6.855,26.759,10.761,41.979,10.761
		c16.743,0,32.374-4.725,45.656-12.904V92.657c-13.28-8.176-28.914-12.896-45.656-12.896
		C248.995,79.761,234.692,83.67,222.238,90.524z"/>
</g>
<path style="fill:#58595B;" d="M390.455,66.066h-74.103c-11.06-15.906-29.459-26.327-50.302-26.327
	c-20.843,0-39.241,10.42-50.302,26.327h-30.387c-2.638,0-5.221,0.761-7.438,2.191l-69.506,44.857
	c-3.155,2.037-5.062,5.536-5.062,9.291v14.443c0,3.802,3.083,6.886,6.886,6.886h111.987c11.121,11.397,26.641,18.482,43.823,18.482
	s32.702-7.085,43.823-18.482h80.581c10.046,0,18.189-8.144,18.189-18.189v-41.29C408.645,74.21,400.501,66.066,390.455,66.066z"/>
<circle style="fill:#414042;" cx="265.055" cy="100.274" r="9.05"/>
<circle cx="266.051" cy="464.287" r="9.05"/>
<path style="fill:#414042;" d="M390.455,66.066h-19.218v77.668h19.218c10.046,0,18.19-8.144,18.19-18.189v-41.29
	C408.645,74.21,400.501,66.066,390.455,66.066z"/>
<path d="M390.456,57.479h-69.799c-0.71-0.89-1.448-1.749-2.196-2.599V31.804C318.461,14.267,304.194,0,286.656,0h-41.2
	c-17.537,0-31.804,14.267-31.804,31.804v23.061c-0.752,0.854-1.494,1.719-2.207,2.613h-26.081c-4.299,0-8.481,1.232-12.094,3.563
	l-69.511,44.858c-5.63,3.635-8.991,9.805-8.991,16.507v14.442c0,8.532,6.942,15.474,15.473,15.474h108.503
	c12.928,11.945,29.587,18.482,47.307,18.482c12.606,0,24.666-3.323,35.236-9.532v325.542c0,6.596-0.906,8.011-10.507,8.011h-49.448
	c-9.602,0-10.507-1.415-10.507-8.011V217.17c0-4.744-3.844-8.587-8.587-8.587s-8.587,3.844-8.587,8.587v269.645
	c0,9.634,3.152,16.65,9.37,20.853c5.647,3.818,12.425,4.332,18.311,4.332h49.448c5.886,0,12.665-0.514,18.311-4.332
	c6.217-4.203,9.37-11.219,9.37-20.853V152.322h71.995c14.764,0,26.776-12.012,26.776-26.777v-41.29
	C417.232,69.49,405.219,57.479,390.456,57.479z M245.456,17.174h41.2c8.067,0,14.63,6.563,14.63,14.63v8.939
	c-10.553-6.177-22.676-9.592-35.236-9.592c-12.555,0-24.675,3.412-35.225,9.585v-8.933
	C230.826,23.737,237.388,17.174,245.456,17.174z M400.058,125.546c0,5.294-4.307,9.603-9.602,9.603h-10.631v-34.874
	c0-4.744-3.844-8.587-8.587-8.587c-4.743,0-8.587,3.844-8.587,8.587v34.874h-52.777c-0.29,0-0.578,0.015-0.863,0.044
	c-1.46,0.145-2.811,0.657-3.962,1.44c-0.022,0.014-0.04,0.031-0.062,0.046c-0.208,0.144-0.411,0.295-0.606,0.458
	c-0.065,0.054-0.125,0.114-0.188,0.171c-0.148,0.131-0.294,0.261-0.432,0.401c-0.01,0.01-0.022,0.019-0.032,0.03
	c-10.001,10.247-23.383,15.892-37.678,15.892c-14.295,0-27.676-5.645-37.677-15.892c-1.616-1.656-3.832-2.59-6.145-2.59H111.942
	v-12.741c0-0.844,0.424-1.621,1.13-2.077l69.508-44.857c0.831-0.537,1.793-0.82,2.782-0.82h30.386c2.812,0,5.445-1.376,7.049-3.686
	c9.859-14.178,26.027-22.641,43.251-22.641s33.392,8.465,43.251,22.641c1.604,2.309,4.237,3.686,7.049,3.686h74.104
	c5.294,0,9.602,4.308,9.602,9.603v41.29H400.058z"/>
<circle cx="265.055" cy="100.274" r="8.587"/>
<circle cx="222.234" cy="183.684" r="9.05"/>
</svg>